<svg xmlns="http://www.w3.org/2000/svg" width="26.332" height="26.34" viewBox="0 0 26.332 26.34">
  <g id="icon-edit" transform="translate(-6.263 -5.94)">
    <path id="パス_43" data-name="パス 43" d="M131.19,4.736l-3.9-3.9a1.059,1.059,0,0,0-.748-.315.984.984,0,0,0-.7.288l-12.309,12.3-2.066,6.612a.66.66,0,0,0,.169.664.671.671,0,0,0,.471.2.653.653,0,0,0,.194-.029l6.612-2.066,12.3-12.3a1.03,1.03,0,0,0-.025-1.452ZM119.343,16.054a1.707,1.707,0,0,0-.333-.569l8.449-8.449.453.453-5.981,5.981ZM118.206,17.2l-.047.047-3.962,1.24-.65-.652,1.24-3.962.047-.047.551-.029a.5.5,0,0,1,.529.529,1.712,1.712,0,0,0,1.8,1.8.5.5,0,0,1,.53.529Zm-2.234-4.516,8.566-8.566.453.453-8.451,8.449a1.715,1.715,0,0,0-.486-.3c-.029-.012-.055-.028-.084-.04Zm1.671,2.234a.5.5,0,0,1-.53-.53,1.708,1.708,0,0,0-.073-.59l8.589-8.589L126.82,6.4l-8.589,8.589a1.7,1.7,0,0,0-.592-.072Zm7.533-11.434L126.553,2.1l3.375,3.375L128.55,6.856Z" transform="translate(-98.907 5.421)" fill="#0d5267"/>
    <path id="パス_42" data-name="パス 42" d="M23.4,66.8v-.011l-3.175,3.175v8.3a.094.094,0,0,1-.083.083H11.5l-8.256-.008-.018-.008c-.015,0-.032-.019-.047-.068V61.348a.087.087,0,0,1,.083-.083h8.394l1.856-1.86,1.316-1.312h-.008l.008-.008H3.255A3.261,3.261,0,0,0,0,61.348V78.273A3.229,3.229,0,0,0,.794,80.4c.04.048.088.087.13.138L1,80.611c.041.04.077.087.123.124a3.229,3.229,0,0,0,2.137.806H20.142A3.262,3.262,0,0,0,23.4,78.279V66.8Z" transform="translate(6.263 -49.261)" fill="#0d5267"/>
  </g>
</svg>
