<svg xmlns="http://www.w3.org/2000/svg" width="6.4" height="10.72" viewBox="0 0 6.4 10.72">
  <path id="パス_9" data-name="パス 9" d="M2.736-3.712a3.05,3.05,0,0,1,.328-1.44,4.085,4.085,0,0,1,1.16-1.264,3.941,3.941,0,0,0,.784-.776,1.227,1.227,0,0,0,.208-.7,1.2,1.2,0,0,0-.44-.984,1.909,1.909,0,0,0-1.24-.36,2.993,2.993,0,0,0-1.232.28,4.863,4.863,0,0,0-1.168.744L.32-9.168a5.4,5.4,0,0,1,1.568-1.016A4.559,4.559,0,0,1,3.7-10.56a3.891,3.891,0,0,1,1.552.3,2.435,2.435,0,0,1,1.08.872A2.386,2.386,0,0,1,6.72-8.016a2.663,2.663,0,0,1-.3,1.3A3.284,3.284,0,0,1,5.392-5.664a4.541,4.541,0,0,0-.784.68,1.974,1.974,0,0,0-.408.7,2.872,2.872,0,0,0-.12.872v.16L2.736-3.12ZM3.392.16A1.022,1.022,0,0,1,2.88.024,1,1,0,0,1,2.5-.344a.979.979,0,0,1-.136-.5.979.979,0,0,1,.136-.5A1,1,0,0,1,2.88-1.72a1.022,1.022,0,0,1,.512-.136A1.022,1.022,0,0,1,3.9-1.72a1,1,0,0,1,.376.368.979.979,0,0,1,.136.5.979.979,0,0,1-.136.5A1,1,0,0,1,3.9.024,1.022,1.022,0,0,1,3.392.16Z" transform="translate(-0.32 10.56)" fill="#0d5267"/>
</svg>
